<?xml version="1.0" encoding="UTF-8"?>
<svg width="14px" height="13px" viewBox="0 0 14 13" version="1.1" xmlns="http://www.w3.org/2000/svg" xmlns:xlink="http://www.w3.org/1999/xlink">
    <!-- Generator: Sketch 64 (93537) - https://sketch.com -->
    <title>icon/车</title>
    <desc>Created with Sketch.</desc>
    <g id="icon/车" stroke="none" stroke-width="1" fill="none" fill-rule="evenodd">
        <path d="M13.088277,5.16860823 C12.9745276,4.47561224 12.604395,2.35635459 12.2036508,1.5539951 C11.9367834,1.02024535 11.2516431,0.611630507 10.1684022,0.341248367 C9.28814698,0.121620143 8.16290906,1.09245946e-13 7.00001502,1.09245946e-13 C5.83712098,1.09245946e-13 4.71188306,0.12074896 3.8316278,0.341248367 C2.7483719,0.61250169 2.06326161,1.02024535 1.79637923,1.5539951 C1.39562005,2.35549843 1.02550249,4.47562726 0.91175303,5.16860823 C0.300122524,5.58773735 0,6.1940957 0,6.99998498 L0,9.18748029 C0,9.75796993 0.365761652,10.2444805 0.874998122,10.4247253 L0.874998122,11.3749756 C0.874998122,11.8571002 1.26788661,12.2499737 1.74999624,12.2499737 L2.62499437,12.2499737 C3.10711902,12.2499737 3.5,11.8570852 3.5,11.3749756 L3.5,10.4999775 L10.5,10.4999775 L10.5,11.3749756 C10.5,11.8571002 10.892896,12.2499737 11.3750056,12.2499737 L12.2500038,12.2499737 C12.7321284,12.2499737 13.1250019,11.8570852 13.1250019,11.3749756 L13.1250019,10.4247253 C13.6342534,10.2444805 14,9.75798495 14,9.18748029 L14,6.99998498 C14,6.19411072 13.6998625,5.58773735 13.088247,5.16860823 L13.088277,5.16860823 Z M2.57862641,1.94599739 C2.83849427,1.42711782 4.47562726,0.874998122 7.00001502,0.874998122 C9.52440278,0.874998122 11.1615208,1.42624664 11.4214036,1.94599739 C11.6725296,2.44913558 11.9516386,3.77998768 12.1240427,4.73115423 C12.0382763,4.70575474 11.9499113,4.68214268 11.8589177,4.66114417 C11.6253055,4.60601932 11.3732933,4.56139372 11.1037824,4.52465383 L8.56715297,2.70729111 C8.37113681,2.56641482 8.09728496,2.6119116 7.95639365,2.80792776 C7.81550234,3.00394393 7.86101413,3.27779578 8.0570303,3.41868709 L9.4272809,4.40043516 C8.68353099,4.37592188 7.86802866,4.37592188 6.99915886,4.37592188 C6.89679486,4.37592188 6.79528703,4.37592188 6.6937792,4.37592188 L4.17901951,2.69942043 C3.97777625,2.56554364 3.70652293,2.61979731 3.57264614,2.82104057 C3.43876936,3.02228383 3.49302303,3.29353715 3.69426629,3.42741394 L5.13278459,4.38640611 C3.95942133,4.40740463 2.93916096,4.47127135 2.14027118,4.66115919 C2.04926261,4.68302888 1.96089762,4.70664095 1.87514618,4.73115423 C2.04840644,3.78003274 2.32664425,2.4491506 2.57864143,1.94601241 L2.57862641,1.94599739 Z M2.62500939,11.3750056 L1.75001127,11.3750056 L1.75001127,10.5000075 L2.62500939,10.5000075 L2.62500939,11.3750056 Z M11.3750207,11.3750056 L11.3750207,10.5000075 L12.2500188,10.5000075 L12.2500188,11.3750056 L11.3750207,11.3750056 Z M11.6567732,5.51164403 C12.6997745,5.76014145 13.1250319,6.19151219 13.1250319,7.00001502 L13.1250319,9.18751033 C13.1250319,9.42900825 12.9290007,9.62500939 12.6875178,9.62500939 L1.31249718,9.62500939 C1.07099926,9.62500939 0.874998122,9.42899323 0.874998122,9.18751033 L0.874998122,7.00001502 C0.874998122,6.19151219 1.30024054,5.76014145 2.34325681,5.51164403 C3.29496609,5.28488912 4.66072426,5.25465514 6.25086309,5.25062394 L7.74912669,5.25062394 C9.33910444,5.25465514 10.7043089,5.28488912 11.6567732,5.51164403 Z M3.06250845,6.12500188 C2.33888587,6.12500188 1.75001127,6.71387649 1.75001127,7.43749906 C1.75001127,8.16112164 2.33888587,8.74999624 3.06250845,8.74999624 C3.78613103,8.74999624 4.37500563,8.16112164 4.37500563,7.43749906 C4.37500563,6.71387649 3.78613103,6.12500188 3.06250845,6.12500188 Z M10.9375216,6.12500188 C10.213899,6.12500188 9.62502441,6.71387649 9.62502441,7.43749906 C9.62502441,8.16112164 10.213899,8.74999624 10.9375216,8.74999624 C11.6611442,8.74999624 12.2500188,8.16112164 12.2500188,7.43749906 C12.2500188,6.71387649 11.6611442,6.12500188 10.9375216,6.12500188 Z M3.06250845,7 C3.30399135,7 3.50000751,7.19601616 3.50000751,7.43749906 C3.50000751,7.67898196 3.30399135,7.87499812 3.06250845,7.87499812 C2.82102555,7.87499812 2.62500939,7.67898196 2.62500939,7.43749906 C2.62500939,7.19601616 2.82101053,7 3.06250845,7 Z M10.9375216,7 C11.1790045,7 11.3750207,7.19601616 11.3750207,7.43749906 C11.3750207,7.67898196 11.1790045,7.87499812 10.9375216,7.87499812 C10.6960387,7.87499812 10.5000225,7.67898196 10.5000225,7.43749906 C10.5000225,7.19601616 10.6960237,7 10.9375216,7 Z" fill="#00B088" fill-rule="nonzero"></path>
    </g>
</svg>